<?xml version="1.0" encoding="UTF-8"?>
<svg id="Layer_2" data-name="Layer 2" xmlns="http://www.w3.org/2000/svg" viewBox="0 0 436.04 291.67">
  <defs>
    <style>
      .cls-1 {
        fill: #315d9e;
        fill-rule: evenodd;
      }

      .cls-2 {
        fill: #fff;
        font-family: LuloCleanOne-Bold, 'Lulo Clean';
        font-size: 60px;
        font-weight: 700;
      }

      .cls-3 {
        letter-spacing: -.06em;
      }
    </style>
  </defs>
  <g id="Layer_2-2" data-name="Layer 2">
    <g id="Layer_1-2" data-name="Layer 1-2">
      <path class="cls-1" d="M408.54,132.33c-1.88-8.55-4.21-14.05-9.19-21.65-8.51-13-21.76-22.76-36.31-26.78-7.32-2.02-9.55-2.06-104.75-2.06h-97.27v-4.75c-.05-12.83-5.76-30.12-13.96-42.19C114.75-12.69,42.84-11.36,12.46,37.37-7.94,70.1-2.92,111.09,24.8,138.05l7.94,7.72-9.11,9.3c-10.7,10.92-14.62,17.17-19.48,31.05-3.44,9.82-3.58,10.74-3.59,24.2-.02,19.31,3.29,30.95,12.97,45.51,11.62,17.47,28.49,29.16,49.29,34.13,11.06,2.65,27.72,2.17,39.17-1.12,32.45-9.33,55.24-36.89,58.59-70.85l.7-7.08,97.12-.32,97.12-.33,7.49-2.29c11.61-3.55,18.67-7.81,27.56-16.64,16.09-15.98,22.67-37.59,17.97-59"/>
    </g>
    <text class="cls-2" transform="translate(150.27 168.74)"><tspan x="0" y="0">Bu</tspan><tspan class="cls-3" x="122.22" y="0">y</tspan></text>
  </g>
</svg>