<?xml version="1.0" encoding="UTF-8"?>
<svg id="Layer_2" data-name="Layer 2" xmlns="http://www.w3.org/2000/svg" viewBox="0 0 410.03 291.67">
  <defs>
    <style>
      .cls-1 {
        fill: #315d9e;
        fill-rule: evenodd;
      }

      .cls-2 {
        fill: #fff;
      }
    </style>
  </defs>
  <g id="Layer_2-2" data-name="Layer 2">
    <g id="Layer_1-2" data-name="Layer 1-2">
      <path class="cls-1" d="M408.54,132.33c-1.88-8.55-4.21-14.05-9.19-21.65-8.51-13-21.76-22.76-36.31-26.78-7.32-2.02-9.55-2.06-104.75-2.06h-97.27v-4.75c-.05-12.83-5.76-30.12-13.96-42.19C114.75-12.69,42.84-11.36,12.46,37.37-7.94,70.1-2.92,111.09,24.8,138.05l7.94,7.72-9.11,9.3c-10.7,10.92-14.62,17.17-19.48,31.05-3.44,9.82-3.58,10.74-3.59,24.2-.02,19.31,3.29,30.95,12.97,45.51,11.62,17.47,28.49,29.16,49.29,34.13,11.06,2.65,27.72,2.17,39.17-1.12,32.45-9.33,55.24-36.89,58.59-70.85l.7-7.08,97.12-.32,97.12-.33,7.49-2.29c11.61-3.55,18.67-7.81,27.56-16.64,16.09-15.98,22.67-37.59,17.97-59"/>
    </g>
    <g>
      <path class="cls-2" d="M153.87,121.94h23.28c10.08,0,15.18,5.46,15.18,12.9,0,4.74-2.22,7.92-5.7,9.84,4.74,1.8,7.8,5.4,7.8,10.86,0,7.74-5.76,13.2-15.24,13.2h-25.32v-46.8ZM165.87,132.86v7.44h9.9c3.24,0,4.44-1.5,4.44-3.72s-1.26-3.72-3.78-3.72h-10.56ZM165.87,149.66v8.22h12c3.24,0,4.44-1.74,4.44-4.2s-1.2-4.02-4.44-4.02h-12Z"/>
      <path class="cls-2" d="M255.75,121.94v26.34c0,12.06-7.56,21.36-21.54,21.36s-21.48-9.3-21.48-21.36v-26.34h12v25.62c0,6.78,3.24,10.5,9.48,10.5s9.6-3.72,9.6-10.5v-25.62h11.94Z"/>
      <path class="cls-2" d="M296.91,138.92l10.38-16.98h14.16l-18.54,29.64v17.16h-11.94v-17.16l-18.48-29.64h14.1l10.32,16.98Z"/>
    </g>
  </g>
</svg>