<?xml version="1.0" encoding="UTF-8"?>
<svg id="Layer_2" data-name="Layer 2" xmlns="http://www.w3.org/2000/svg" viewBox="0 0 2100.56 457.79">
  <defs>
    <style>
      .cls-1 {
        fill-rule: evenodd;
      }

      .cls-1, .cls-2 {
        fill: #315d9e;
      }
    </style>
  </defs>
  <g id="Layer_1-2" data-name="Layer 1">
    <g>
      <path class="cls-1" d="M779.83,19.65v239.88c0,6.88,5.36,12.39,12.24,12.39h81.42c6.89-.02,12.47-5.61,12.49-12.5V19.65c.05-6.86-5.47-12.45-12.33-12.5-.01,0-.03,0-.04,0h-81.35c-6.88.04-12.43,5.63-12.43,12.5h0ZM765.37,251.81c4.07,5.72,2.73,13.65-2.99,17.72-2.18,1.55-4.78,2.37-7.45,2.35l-87.19-.03c-4.65-.02-9.09-1.92-12.3-5.28l-28.84-39.54c-3.28-4.01-8.18-6.32-13.36-6.31h-205.93c-5.65-.01-10.15,2.71-13.24,6.95l-25.91,35.6c-3.01,5.31-8.63,8.59-14.73,8.6l-.12-.03-.13.09-83.77-.06c-7.05,0-13.14-5.7-13.14-12.75,0-3.07,1.1-6.04,3.11-8.36L447.34,7.29c3.09-4.24,8.21-7.29,13.86-7.29h101.68c6.4,0,11.9,3.56,14.82,8.78l187.66,243.03h0ZM573.6,144.49l-50.82-70.04c-2.35-3.69-6.43-5.92-10.8-5.92-4.13.06-7.99,2.07-10.41,5.41l-51.28,70.65c-1.64,2.21-2.53,4.89-2.54,7.65.04,7.06,5.79,12.75,12.85,12.72h102.62c7.09.04,12.89-5.63,13.02-12.72,0-2.8-.93-5.53-2.63-7.75h0ZM2084.41,257.7c1.04,1.58,1.8,3.68,1.8,5.71,0,5.46-4.43,9.88-9.88,9.88-.02,0-.03,0-.05,0h-67.76c-3.75,0-7.16-1.63-9.55-4.13l-22.42-30.73c-2.55-3.11-6.36-4.91-10.38-4.9h-160.04c-4.4-.01-7.88,2.1-10.28,5.4l-20.14,27.66c-2.33,4.13-6.7,6.69-11.44,6.71h-65.31c-5.49,0-10.21-4.45-10.21-9.93,0-2.49.9-4.74,2.42-6.5l146.09-189.19c2.42-3.29,6.37-5.66,10.77-5.66h79.03c4.97,0,9.26,2.76,11.51,6.82l145.82,188.85h0ZM1934.36,180.47l-39.51-54.43c-1.82-2.87-4.98-4.6-8.38-4.6-3.21.05-6.2,1.61-8.08,4.21l-39.85,54.9c-1.28,1.72-1.97,3.8-1.99,5.94,0,5.49,4.5,9.88,9.98,9.88h79.74c5.52.05,10.04-4.37,10.14-9.88,0-2.18-.72-4.3-2.05-6.02h0ZM1418.24,150.77c-5.49-.02-9.94-4.48-9.93-9.98v-31.79c0-5.49,4.45-9.93,9.93-9.93l121.5-.02c33.59,0,41.74,5.09,47.98,10.16,5.76,5.08,6.73,12.27,6.73,16.44,0,23.62-32.62,25.11-50.87,25.11h-125.34ZM1599.39,273.3h68.89c5.45.04,9.9-4.35,9.95-9.8.02-2.66-1.04-5.22-2.93-7.09l-82.8-71.8c13.39-1.48,36.79-4.45,54.91-13.06,23.86-11.27,32.47-30.33,32.47-46.48,0-12.27-4.76-28.1-21.96-40.62-28.16-20.27-62.99-22.36-101.39-22.36l-223.22-.03c-5.44-.01-9.86,4.39-9.87,9.83,0,.03,0,.05,0,.08v191.46c-.03,5.43,4.34,9.85,9.77,9.88.03,0,.07,0,.1,0h65.07c5.48,0,9.91-4.45,9.91-9.93h0s-.05-65.66-.05-65.66c0-5.49,4.38-9.9,9.87-9.9l82.68.05c2.75,0,5.33,1.16,7.11,2.97l84.31,79.47c1.83,1.88,4.37,3.01,7.17,3.01h0ZM221.19,270.44c3.19.97,5.79-1.58,7.61-4.09l136.36-190.92c1.27-1.69,1.95-3.76,1.94-5.87-.04-5.5-4.53-9.92-10.02-9.9h-66.23c-4-.04-7.64,2.31-9.24,5.98l-86,132.17c-5.75,8.08-6.71,10.47-11.01,20.05-3.35-8.67-4.79-11.36-10.06-20.05L87.45,64.33c-2-3.08-5.4-4.98-9.07-5.06l-68.39.08C4.56,59.27.08,63.6,0,69.04c0,.03,0,.05,0,.08,0,2.2.8,4.17,2,5.81l138.91,192.04c1.86,2.24,4.61,3.55,7.53,3.57l72.75-.1c-.67,0,.6.17,0,0h0Z"/>
      <path class="cls-1" d="M1212.16,120.52c1.85,1.34,4.4,2.46,6.84,2.46.31,0,.92-.09,1.21-.12l66.23-5.7c5.49,0,9.94-4.46,9.93-9.95,0-2.89-1.27-5.64-3.46-7.53-9.93-8.5-17.39-14.05-43.8-24.29-46.45-17.6-99.55-19.99-132.56-19.99-26.31,0-113.88,0-169.96,37.28-30.23,20.2-46.06,46.6-46.06,73.91,0,50.48,44.14,112.7,204.05,112.7,51.21,0,103.36-8.36,139.72-30.39l-.05,14.45c0,5.49,4.43,9.95,9.91,9.95h44.87c5.5,0,9.97-4.43,10-9.93l.07-93.34c0-5.49-4.44-9.95-9.93-9.95h0l-162.16-.05c-5.47-.01-9.92,4.41-9.93,9.88v.02l-.07,18.12c0,5.49,4.52,9.72,10,9.72l78.44.05c5.49,0,9.94,4.46,9.93,9.95h0c-.02,3.53-1.86,6.8-4.88,8.64-2.89,1.75-6.18,3.81-10.18,5.78-21.04,10.54-54.53,18.67-94.71,18.67-82.31,0-127.75-32.51-127.75-73.67,0-46.6,53.11-72.72,125.36-72.72,58.6-.01,84.43,15.46,98.95,26.03h0ZM2031.38,79.86h6.8c5.73,0,7.27,1.75,7.27,4.86,0,3.57-1.99,5.32-8.1,5.32h-5.97v-10.17h0ZM2031.38,94.16h5.64l8.72,14.21h5.47l-9.28-14.37c4.88-.61,8.51-3.12,8.51-8.98,0-6.38-3.79-9.28-11.56-9.28h-12.51v32.62h5.02v-14.2h0ZM2008.82,91.79c0,16.42,13.21,28.42,28.74,28.42s28.61-12,28.61-28.42-13.21-28.2-28.61-28.2-28.74,11.99-28.74,28.2ZM2060.69,91.79c0,13.83-10.16,23.83-23.12,23.83s-23.26-10-23.26-23.83,10.16-23.61,23.26-23.61,23.12,10.15,23.12,23.61Z"/>
    </g>
    <g>
      <path class="cls-2" d="M1433.71,456.01l-1.98,1.43c-4.62-13.5-7.94-25.42-9.96-35.77-1.55-8.09-2.33-16.24-2.33-24.44,0-19.15,2.89-36.3,8.68-51.47,7.11-18.55,18.63-36.63,34.55-54.24l1.4,3.12c-7.19,8.15-13.05,17.28-17.6,27.38-5.67,12.61-10.31,27.83-13.93,45.67-3.61,17.84-5.42,34.08-5.42,48.71,0,11.18,2.19,24.38,6.58,39.61Z"/>
      <path class="cls-2" d="M1500.87,337.64l-3.55,27.39h-2.16c-.19-7.97-1.3-13.77-3.32-17.4-2.02-3.62-4.53-5.44-7.52-5.44-2.41,0-4.32,1.01-5.74,3.03-1.42,2.02-2.13,4.46-2.13,7.31,0,1.96.28,3.84.85,5.62.56,1.78,1.8,4.28,3.7,7.49,5.05,8.44,8.31,14.81,9.79,19.09,1.48,4.28,2.21,8.33,2.21,12.13,0,6.19-1.68,11.67-5.04,16.46-3.36,4.79-7.6,7.18-12.73,7.18-2.8,0-6.02-1.01-9.67-3.03-1.28-.71-2.27-1.07-2.97-1.07-1.75,0-3.07,1.37-3.96,4.1h-2.16l3.55-28.9h2.16c.23,9.04,1.46,15.43,3.67,19.18,2.21,3.75,5.24,5.62,9.09,5.62,2.95,0,5.29-1.26,7.02-3.79,1.73-2.53,2.59-5.63,2.59-9.32,0-2.38-.31-4.58-.93-6.6-1.09-3.57-3.37-8.51-6.85-14.81-3.48-6.3-5.71-11.03-6.7-14.18-.99-3.15-1.49-6.3-1.49-9.46,0-5.77,1.37-10.64,4.11-14.63,2.74-3.98,6.26-5.98,10.58-5.98,1.24,0,2.37.15,3.38.45.54.18,1.82.85,3.82,2.01,2,1.16,3.33,1.74,3.99,1.74,1.67,0,3.07-1.4,4.2-4.19h2.21Z"/>
      <path class="cls-2" d="M1566.76,339.78l-10.14,53.17c-1.52,7.91-2.27,12.91-2.27,14.99,0,1.07.13,1.86.38,2.36.25.51.59.76,1.02.76.66,0,1.39-.46,2.19-1.38.79-.92,2.81-4.6,6.03-11.02l1.75,2.05c-3.07,7.43-6.22,12.91-9.44,16.41-2.14,2.26-4.2,3.39-6.18,3.39-1.52,0-2.7-.66-3.55-1.96-.85-1.31-1.28-3-1.28-5.08s.25-4.7.76-8.03c.62-4.4,2.39-13.97,5.3-28.72-6.6,16.59-12.13,28.04-16.58,34.34-4.45,6.31-8.58,9.46-12.38,9.46-1.79,0-3.3-.95-4.55-2.85-1.24-1.9-1.86-4.31-1.86-7.23,0-4.46.85-11.3,2.56-20.51l5.07-27.57c1.24-6.6,1.86-10.7,1.86-12.31,0-.71-.17-1.32-.49-1.83-.33-.5-.69-.76-1.08-.76-.82,0-1.63.44-2.45,1.34s-2.66,4.19-5.54,9.9l-1.81-1.96c2.91-6.9,6-11.98,9.27-15.26,2.49-2.56,4.78-3.84,6.88-3.84,1.44,0,2.61.7,3.52,2.1.91,1.4,1.37,3.2,1.37,5.39,0,3.21-.78,8.95-2.33,17.22l-5.48,28.81c-1.52,7.85-2.27,12.82-2.27,14.9,0,1.13.24,2.04.73,2.72.48.68,1.14,1.03,1.95,1.03,1.28,0,2.95-.98,5.01-2.95,2.06-1.96,4.81-6.32,8.24-13.07,3.44-6.75,6.27-13.08,8.51-19,2.23-5.92,4.61-15.33,7.14-28.23l1.28-6.78h8.86Z"/>
      <path class="cls-2" d="M1603.21,337.64l-4.02,20.52c4.23-7.61,8.01-12.94,11.33-15.97,3.32-3.03,6.71-4.55,10.17-4.55s6.41,2.1,8.86,6.29c2.45,4.19,3.67,9.65,3.67,16.37,0,13.08-3.48,26.39-10.43,39.92-6.95,13.53-15.05,20.29-24.3,20.29-1.94,0-3.66-.33-5.16-.98-1.5-.66-3.18-1.81-5.04-3.48l-4.25,23.01c-.85,4.52-1.28,7.46-1.28,8.83s.22,2.42.67,3.35c.45.92,1.17,1.63,2.19,2.14,1.01.5,3.01.76,6,.76l-.52,3.3h-27.45l.58-3.3c3.61-.24,6.05-1.19,7.31-2.85,1.26-1.67,2.59-6.28,3.99-13.83l14.74-78.14c.89-4.93,1.34-8,1.34-9.19,0-1.6-.3-2.85-.9-3.74-.6-.89-1.53-1.34-2.77-1.34-1.13,0-2.7.21-4.72.63v-3.48l19.99-4.55ZM1589.64,409c2.41,4.4,5.65,6.6,9.73,6.6,2.02,0,4.08-.86,6.18-2.59,2.1-1.72,4.15-4.28,6.15-7.67,2-3.39,3.8-7.3,5.39-11.73,1.59-4.43,3.02-9.65,4.28-15.66,1.26-6,1.89-11.95,1.89-17.84,0-4.76-.71-8.4-2.13-10.93-1.42-2.53-3.08-3.79-4.98-3.79-4.2,0-8.34,3.69-12.44,11.06-4.1,7.38-7.1,16-9,25.87l-5.07,26.67Z"/>
      <path class="cls-2" d="M1657.27,384.74c-.27,2.98-.41,5.44-.41,7.41,0,5.29,1.22,9.8,3.67,13.51,2.45,3.72,5.42,5.58,8.92,5.58,2.8,0,5.49-.88,8.07-2.63,2.58-1.75,6.42-5.63,11.51-11.64l1.22,2.59c-9.21,13.97-17.99,20.96-26.34,20.96-5.67,0-9.95-2.73-12.82-8.21-2.88-5.47-4.31-11.51-4.31-18.11,0-8.86,1.79-17.93,5.36-27.21,3.57-9.28,8.06-16.49,13.46-21.63,5.4-5.14,10.95-7.72,16.67-7.72,4.12,0,7.17,1.28,9.15,3.84,1.98,2.56,2.97,5.59,2.97,9.1,0,4.94-1.28,9.67-3.85,14.18-3.38,5.89-8.35,10.65-14.92,14.27-4.35,2.44-10.47,4.34-18.36,5.71ZM1657.68,380.37c5.75-1.01,10.43-2.73,14.04-5.17,4.78-3.27,8.36-7.18,10.75-11.73,2.39-4.55,3.58-8.88,3.58-12.98,0-2.5-.52-4.52-1.54-6.07-1.03-1.54-2.5-2.32-4.4-2.32-3.96,0-8.17,3.22-12.62,9.68-4.45,6.45-7.72,15.98-9.82,28.59Z"/>
      <path class="cls-2" d="M1708.82,342.63l20.1-5-8.39,43.36c6.8-17.78,12.97-30.21,18.53-37.29,3.15-4.04,5.71-6.07,7.69-6.07,1.28,0,2.29.58,3.03,1.74.74,1.16,1.11,2.84,1.11,5.04,0,3.92-.66,7.67-1.98,11.24-.93,2.67-2.27,4.01-4.02,4.01-.89,0-1.66-.44-2.3-1.34-.64-.89-1.04-2.26-1.19-4.1-.08-1.13-.25-1.87-.52-2.23-.31-.47-.68-.71-1.11-.71-.66,0-1.28.24-1.86.71-1.01.83-2.54,3.15-4.6,6.96-3.22,5.83-6.72,13.38-10.49,22.66-1.63,3.92-3.03,8.36-4.2,13.29-1.63,6.78-2.56,10.85-2.8,12.22l-1.86,11.24h-8.92l10.78-55.4c1.24-6.42,1.86-11,1.86-13.73,0-1.07-.29-1.97-.87-2.68-.78-.95-1.81-1.43-3.09-1.43-.82,0-2.31.27-4.49.8l-.41-3.3Z"/>
      <path class="cls-2" d="M1815.72,291.52l-20.05,105.26c-1.09,5.71-1.63,9.46-1.63,11.24,0,.6.16,1.16.5,1.69.33.54.67.8,1.02.8.5,0,1.11-.39,1.81-1.16,1.32-1.43,3.53-5,6.64-10.7l1.98,1.87c-2.8,5.95-5.62,10.77-8.48,14.45-2.85,3.69-5.53,5.53-8.01,5.53-1.32,0-2.41-.71-3.26-2.14-.85-1.43-1.28-3.45-1.28-6.07,0-3.39.58-7.94,1.75-13.65l2.27-11.06c-5.63,13.32-10.76,22.54-15.38,27.66-3.19,3.51-6.23,5.26-9.15,5.26s-5.53-2.01-7.72-6.02c-2.2-4.02-3.29-9.47-3.29-16.37,0-8.86,1.84-18.32,5.54-28.37,3.69-10.05,8.57-18.22,14.63-24.53,4.78-5.05,9.17-7.58,13.17-7.58,2.1,0,3.9.66,5.42,1.97s3.01,3.48,4.49,6.51l5.71-31.04c.43-2.2.78-3.95,1.05-5.26.47-2.38.7-4.34.7-5.88,0-1.25-.29-2.29-.87-3.12-.82-1.01-1.86-1.52-3.15-1.52-.89,0-2.37.21-4.43.62v-3.3l20.05-5.08ZM1794.1,354.85c0-3.81-.72-6.87-2.16-9.19-1.44-2.32-3.26-3.48-5.48-3.48-4.89,0-9.99,6.19-15.3,18.55-5.3,12.37-7.95,24.2-7.95,35.5,0,4.46.64,7.87,1.92,10.21s2.82,3.52,4.6,3.52c4.04,0,9.11-6.69,15.21-20.07,6.1-13.38,9.15-25.07,9.15-35.06Z"/>
      <path class="cls-2" d="M1831.61,384.74c-.27,2.98-.41,5.44-.41,7.41,0,5.29,1.22,9.8,3.67,13.51,2.45,3.72,5.42,5.58,8.92,5.58,2.8,0,5.49-.88,8.07-2.63,2.58-1.75,6.42-5.63,11.51-11.64l1.22,2.59c-9.21,13.97-17.99,20.96-26.34,20.96-5.67,0-9.95-2.73-12.82-8.21-2.88-5.47-4.31-11.51-4.31-18.11,0-8.86,1.79-17.93,5.36-27.21,3.57-9.28,8.06-16.49,13.46-21.63,5.4-5.14,10.95-7.72,16.67-7.72,4.12,0,7.17,1.28,9.15,3.84,1.98,2.56,2.97,5.59,2.97,9.1,0,4.94-1.28,9.67-3.85,14.18-3.38,5.89-8.35,10.65-14.92,14.27-4.35,2.44-10.47,4.34-18.36,5.71ZM1832.02,380.37c5.75-1.01,10.43-2.73,14.04-5.17,4.78-3.27,8.36-7.18,10.75-11.73,2.39-4.55,3.58-8.88,3.58-12.98,0-2.5-.52-4.52-1.54-6.07-1.03-1.54-2.5-2.32-4.4-2.32-3.96,0-8.17,3.22-12.62,9.68-4.45,6.45-7.72,15.98-9.82,28.59Z"/>
      <path class="cls-2" d="M1939.1,343.17l-1.69,9.28h-9.73c.74,3.21,1.11,6.22,1.11,9.01,0,7.85-2.18,14.84-6.53,20.96-4.39,6.12-10.41,9.51-18.06,10.17-4.12,1.91-7.21,4.16-9.27,6.78-.78.95-1.17,1.94-1.17,2.95,0,1.19.35,2.27,1.05,3.26.7.98,2.47,1.98,5.3,2.99l11.3,4.01c6.25,2.26,10.39,4.94,12.41,8.03,1.98,3.15,2.97,6.78,2.97,10.88,0,4.88-1.18,9.34-3.53,13.38-2.35,4.04-5.79,7.21-10.31,9.5-4.53,2.29-9.53,3.44-15.01,3.44-4.82,0-9.21-.88-13.17-2.63-3.96-1.75-6.8-4.12-8.51-7.09-1.71-2.98-2.56-6.04-2.56-9.19,0-2.56.55-5.22,1.66-7.98,1.11-2.77,2.5-5.04,4.17-6.82,1.05-1.13,4.02-3.81,8.92-8.03-1.79-2.14-2.68-4.49-2.68-7.05,0-2.38.79-4.9,2.36-7.58,1.57-2.68,4.9-5.62,9.99-8.83-4.27-1.25-7.66-3.98-10.17-8.21-2.5-4.22-3.76-8.92-3.76-14.09,0-8.44,2.42-16,7.25-22.66,4.84-6.66,11.28-9.99,19.32-9.99,2.91,0,5.3.45,7.17,1.34s3.67,2.29,5.42,4.19h15.73ZM1890.97,418.37c-3.15,2.2-5.53,5.02-7.14,8.47-1.61,3.45-2.42,6.84-2.42,10.17,0,3.92,1.17,7.16,3.5,9.72,3.34,3.69,8.24,5.53,14.68,5.53,5.55,0,10.3-1.44,14.25-4.33,3.94-2.88,5.91-6.62,5.91-11.19,0-2.32-.73-4.52-2.19-6.6-1.46-2.08-4.28-3.78-8.48-5.09-2.29-.71-8.33-2.94-18.12-6.69ZM1918.88,357.17c0-4.76-.87-8.5-2.59-11.24-1.73-2.73-3.99-4.1-6.79-4.1-4.39,0-8.01,3.38-10.87,10.12-2.86,6.75-4.28,13.78-4.28,21.1,0,4.58.91,8.33,2.74,11.24,1.83,2.92,4.04,4.37,6.64,4.37,2.06,0,4.05-.86,5.97-2.59,1.92-1.72,3.54-4.1,4.87-7.14,1.32-3.03,2.37-6.9,3.15-11.6.78-4.7,1.17-8.09,1.17-10.17Z"/>
      <path class="cls-2" d="M1957.38,384.74c-.27,2.98-.41,5.44-.41,7.41,0,5.29,1.22,9.8,3.67,13.51,2.45,3.72,5.42,5.58,8.92,5.58,2.8,0,5.49-.88,8.07-2.63,2.58-1.75,6.42-5.63,11.51-11.64l1.22,2.59c-9.21,13.97-17.99,20.96-26.34,20.96-5.67,0-9.95-2.73-12.82-8.21-2.88-5.47-4.31-11.51-4.31-18.11,0-8.86,1.79-17.93,5.36-27.21,3.57-9.28,8.06-16.49,13.46-21.63,5.4-5.14,10.95-7.72,16.67-7.72,4.12,0,7.17,1.28,9.15,3.84,1.98,2.56,2.97,5.59,2.97,9.1,0,4.94-1.28,9.67-3.85,14.18-3.38,5.89-8.35,10.65-14.92,14.27-4.35,2.44-10.47,4.34-18.36,5.71ZM1957.78,380.37c5.75-1.01,10.43-2.73,14.04-5.17,4.78-3.27,8.36-7.18,10.75-11.73,2.39-4.55,3.58-8.88,3.58-12.98,0-2.5-.52-4.52-1.54-6.07-1.03-1.54-2.5-2.32-4.4-2.32-3.96,0-8.17,3.22-12.62,9.68-4.45,6.45-7.72,15.98-9.82,28.59Z"/>
      <path class="cls-2" d="M2029.03,337.64l-7.75,40.59c7.26-16.59,12.83-27.5,16.69-32.74,3.87-5.23,7.58-7.85,11.16-7.85,1.94,0,3.54.98,4.81,2.95s1.89,4.52,1.89,7.67c0,3.57-.56,8.33-1.69,14.27l-7.11,37.55c-.82,4.34-1.22,6.99-1.22,7.94,0,.83.15,1.53.47,2.1.31.57.64.85.99.85.47,0,1.03-.39,1.69-1.16,2.06-2.5,4.31-6.3,6.76-11.42l1.81,1.69c-3.61,7.91-7.03,13.56-10.26,16.95-2.25,2.32-4.28,3.48-6.06,3.48-1.44,0-2.58-.67-3.44-2.01-.86-1.34-1.28-3.13-1.28-5.39,0-2.85.66-7.76,1.98-14.72l6.76-35.86c.85-4.46,1.28-7.94,1.28-10.44,0-1.19-.25-2.16-.76-2.9s-1.13-1.12-1.86-1.12c-1.09,0-2.39.71-3.9,2.14-2.88,2.68-5.87,7.09-8.97,13.25-3.11,6.15-6.39,14.02-9.85,23.6-1.83,5.05-3.34,10.58-4.55,16.59l-2.91,14.72h-8.74l10.61-55.84c1.24-6.72,1.86-10.76,1.86-12.13s-.34-2.45-1.02-3.44c-.68-.98-1.52-1.47-2.53-1.47-.47,0-1.28.12-2.45.36l-2.21.54-.35-3.21,20.16-5.53Z"/>
      <path class="cls-2" d="M2086.29,293.21l1.98-1.7c4.62,13.44,7.92,25.33,9.91,35.68,1.59,8.09,2.39,16.24,2.39,24.44,0,19.21-2.89,36.37-8.68,51.47-7.15,18.61-18.67,36.72-34.55,54.32l-1.4-2.77c7.19-8.21,13.05-17.33,17.6-27.38,5.67-12.61,10.31-27.85,13.93-45.72,3.61-17.87,5.42-34.12,5.42-48.75,0-11.18-2.2-24.38-6.58-39.61Z"/>
    </g>
  </g>
</svg>